<?xml version="1.0" standalone="no"?>
<!DOCTYPE svg PUBLIC "-//W3C//DTD SVG 20010904//EN"
 "http://www.w3.org/TR/2001/REC-SVG-20010904/DTD/svg10.dtd">
<svg version="1.0" xmlns="http://www.w3.org/2000/svg"
 width="500.000000pt" height="500.000000pt" viewBox="0 0 500.000000 500.000000"
 preserveAspectRatio="xMidYMid meet">
<metadata>
Created by potrace 1.11, written by Peter Selinger 2001-2013
</metadata>
<g transform="translate(0.000000,500.000000) scale(0.100000,-0.100000)"
fill="#000000" stroke="none">
<path d="M321 4985 c-170 -38 -275 -144 -309 -313 -4 -21 -7 -1002 -7 -2182
l0 -2145 23 -72 c39 -125 120 -206 245 -245 l72 -23 2160 0 2160 0 68 24 c123
42 201 121 239 244 l23 72 0 2155 0 2155 -23 72 c-38 123 -118 204 -240 245
l-67 23 -2140 2 c-1805 1 -2150 -1 -2204 -12z m4283 -760 c-9 -14 -13 -25 -9
-25 3 0 -1 -7 -9 -16 -9 -8 -14 -20 -11 -25 4 -5 2 -9 -3 -9 -5 0 -15 -18 -22
-40 -7 -22 -17 -40 -22 -40 -4 0 -7 -3 -6 -7 1 -5 -10 -34 -25 -66 -15 -32
-27 -62 -27 -68 0 -6 -4 -7 -10 -4 -6 3 -10 -5 -10 -19 0 -14 -5 -28 -10 -31
-6 -4 -8 -10 -5 -15 3 -4 -2 -11 -11 -14 -9 -4 -14 -9 -10 -13 3 -3 -1 -17 -9
-30 -9 -13 -13 -29 -9 -35 4 -6 3 -8 -3 -5 -5 3 -32 -10 -59 -29 -27 -19 -57
-40 -67 -47 -11 -6 -31 -22 -45 -34 -15 -13 -33 -23 -39 -23 -7 0 -13 -4 -13
-8 0 -5 -12 -15 -27 -23 -16 -7 -40 -25 -54 -38 -15 -13 -30 -24 -35 -25 -9
-1 -35 -20 -65 -48 -9 -9 -20 -14 -23 -10 -3 3 -6 0 -6 -7 0 -7 -4 -10 -8 -7
-5 3 -14 -4 -22 -14 -8 -10 -17 -17 -22 -14 -4 3 -8 1 -8 -5 0 -5 -8 -12 -17
-15 -16 -5 -35 -19 -90 -66 -7 -5 -15 -10 -18 -10 -4 0 -13 -7 -22 -15 -8 -8
-19 -13 -24 -10 -5 4 -9 -2 -9 -11 0 -10 -3 -15 -6 -11 -6 5 -15 0 -49 -30 -7
-7 -17 -13 -22 -13 -5 0 -23 -13 -40 -29 -18 -16 -34 -26 -37 -23 -3 3 -6 0
-6 -7 0 -7 -4 -10 -8 -7 -5 3 -16 -4 -25 -15 -10 -11 -23 -17 -29 -13 -7 4 -8
3 -4 -4 4 -7 -2 -16 -16 -21 -13 -5 -33 -19 -45 -30 -13 -12 -23 -19 -23 -16
0 3 -6 1 -12 -4 -52 -43 -77 -61 -82 -61 -7 0 -20 -10 -51 -37 -7 -7 -18 -13
-24 -13 -6 0 -11 -4 -11 -10 0 -5 -6 -10 -13 -10 -7 0 -19 -9 -27 -19 -7 -11
-17 -18 -20 -16 -4 2 -16 -5 -28 -15 -12 -11 -26 -20 -31 -20 -5 0 -16 -8 -23
-19 -7 -10 -17 -19 -23 -20 -11 -2 -49 -29 -70 -48 -8 -7 -16 -13 -20 -13 -3
0 -30 -18 -60 -40 -30 -22 -57 -40 -60 -40 -13 0 -54 -38 -48 -44 3 -3 1 -6
-5 -6 -6 0 -28 -11 -49 -25 -65 -42 -65 -43 -40 -69 12 -13 24 -23 27 -22 5 1
28 -18 87 -72 25 -23 39 -29 48 -22 6 5 15 7 18 3 4 -3 9 2 13 11 3 9 10 13
15 10 5 -3 9 0 9 5 0 6 7 11 15 11 9 0 18 7 21 15 4 8 10 15 15 15 12 0 73 42
77 53 2 4 8 7 13 7 6 0 19 9 31 20 12 10 25 17 30 14 4 -3 8 -1 8 4 0 5 33 31
73 58 39 26 74 52 75 56 2 4 10 8 18 8 8 0 14 5 14 10 0 6 6 10 13 10 7 0 23
9 35 20 12 11 26 20 32 20 5 0 10 5 10 10 0 6 6 10 13 10 8 0 24 11 37 25 12
13 27 22 32 19 4 -3 11 2 14 10 3 9 12 16 20 16 8 0 14 5 14 10 0 6 5 10 10
10 11 0 24 10 61 43 10 9 19 14 19 11 0 -3 18 8 39 25 21 17 42 31 45 31 7 0
20 10 51 38 7 6 16 12 19 12 4 0 204 136 231 157 6 4 22 14 37 22 15 8 25 18
22 23 -3 4 4 8 14 8 11 0 22 7 26 15 3 8 10 14 15 13 5 -2 17 6 25 17 l15 20
0 -20 c0 -11 -6 -29 -14 -39 -8 -10 -12 -23 -9 -27 3 -5 1 -9 -4 -9 -5 0 -15
-19 -23 -42 -7 -24 -22 -51 -31 -60 -10 -10 -18 -26 -18 -35 0 -10 -7 -27 -15
-37 -8 -10 -12 -23 -9 -27 3 -5 0 -9 -5 -9 -6 0 -11 -7 -11 -15 0 -8 -5 -15
-12 -15 -6 0 -9 -3 -5 -6 3 -4 -5 -26 -18 -50 -14 -24 -22 -44 -18 -44 11 0
-51 -50 -69 -56 -10 -3 -18 -9 -18 -13 0 -4 -18 -17 -40 -30 -22 -12 -40 -27
-40 -32 0 -6 -4 -8 -8 -5 -5 3 -23 -8 -40 -23 -17 -16 -33 -26 -36 -23 -3 3
-6 0 -6 -6 0 -7 -3 -11 -7 -10 -5 2 -18 -6 -31 -17 -12 -11 -26 -19 -30 -19
-4 1 -13 -7 -20 -18 -7 -10 -18 -16 -23 -13 -5 4 -9 2 -9 -4 0 -5 -8 -12 -17
-15 -10 -3 -31 -17 -47 -31 -16 -13 -52 -39 -80 -57 -50 -32 -64 -42 -89 -64
-7 -5 -20 -13 -29 -17 -10 -3 -18 -11 -18 -17 0 -6 -4 -9 -9 -5 -5 3 -13 1
-16 -5 -4 -6 -24 -21 -44 -35 -21 -13 -44 -29 -52 -37 -8 -7 -26 -19 -40 -26
-14 -8 -38 -24 -54 -38 -15 -13 -36 -26 -46 -29 -11 -4 -19 -11 -19 -16 0 -5
-6 -9 -12 -9 -7 0 -28 -14 -45 -31 -18 -16 -33 -27 -33 -24 0 3 -15 -5 -33
-19 -30 -23 -61 -37 -44 -19 4 4 -7 13 -24 20 -17 7 -28 17 -24 23 3 5 0 10
-8 10 -8 0 -42 20 -76 45 -34 25 -61 43 -61 40 0 -6 -14 5 -47 35 -9 8 -20 15
-25 15 -5 0 -12 5 -16 10 -10 15 -70 55 -81 55 -5 0 -11 3 -13 8 -5 11 -78 64
-78 56 0 -4 -9 3 -20 16 -11 13 -20 19 -20 14 0 -5 -5 -1 -11 9 -5 9 -16 17
-24 17 -7 0 -15 3 -17 8 -1 4 -39 32 -83 62 -44 30 -81 58 -83 62 -2 4 -10 8
-18 8 -8 0 -14 5 -14 10 0 6 -7 10 -15 10 -8 0 -15 4 -15 8 0 5 -12 15 -27 23
-16 8 -36 22 -45 32 -10 11 -22 16 -29 11 -8 -4 -9 -3 -5 4 4 7 2 12 -4 12
-10 0 -21 8 -55 38 -7 6 -18 12 -24 12 -6 0 -11 4 -11 9 0 5 -8 12 -17 15 -16
5 -41 23 -93 68 -8 7 -15 11 -16 8 -2 -3 -14 5 -28 18 -15 12 -29 22 -31 22
-3 0 -15 9 -27 20 -12 10 -24 17 -28 15 -5 -3 -10 2 -14 10 -3 8 -10 15 -16
15 -5 0 -21 10 -36 23 -14 12 -28 20 -31 19 -3 -2 -9 0 -12 5 -15 20 -79 61
-86 55 -5 -4 -5 -2 -2 4 3 6 -6 17 -21 25 -31 16 -44 26 -74 54 -13 12 -18 14
-14 5 5 -9 2 -8 -7 3 -8 9 -17 17 -21 17 -7 0 -20 10 -51 38 -7 6 -18 12 -24
12 -6 0 -11 5 -11 10 0 6 -7 10 -15 10 -8 0 -15 5 -15 11 0 5 -4 7 -10 4 -5
-3 -10 -2 -10 3 0 6 -23 25 -51 43 -28 18 -56 37 -63 43 -19 18 -75 56 -81 56
-3 0 -15 9 -27 20 -12 11 -34 26 -50 32 -15 7 -28 19 -28 26 0 7 -4 11 -8 8
-5 -3 -18 3 -29 14 -12 10 -24 16 -27 13 -3 -4 -6 1 -6 11 0 9 -4 15 -9 12 -4
-3 -21 5 -37 19 -15 13 -30 22 -33 20 -2 -3 -11 4 -18 15 -8 11 -18 18 -23 15
-4 -3 -11 2 -14 11 -3 8 -10 12 -16 9 -5 -3 -10 -2 -10 4 0 5 -18 20 -40 32
-22 13 -40 26 -40 31 0 4 -5 8 -10 8 -22 0 -82 60 -76 76 3 7 -2 18 -10 24 -8
7 -14 21 -14 31 0 11 -5 19 -11 19 -5 0 -8 4 -5 9 3 4 -1 17 -9 27 -8 10 -15
27 -15 37 0 9 -5 17 -11 17 -6 0 -9 7 -5 15 3 8 1 15 -4 15 -6 0 -10 7 -10 15
0 8 -5 15 -11 15 -5 0 -8 4 -5 9 3 5 -5 29 -19 55 -13 25 -22 46 -18 46 3 0 1
6 -4 13 -6 6 -13 20 -16 30 -6 17 -6 17 23 0 17 -9 30 -21 30 -26 0 -5 7 -6
16 -3 8 3 13 2 10 -3 -3 -4 6 -14 19 -21 14 -7 25 -17 25 -22 0 -5 5 -6 10 -3
6 3 10 1 10 -4 0 -6 6 -11 13 -11 6 0 23 -12 36 -25 13 -14 26 -23 29 -21 2 3
10 0 17 -7 35 -33 112 -87 124 -87 6 0 14 -6 18 -14 4 -7 19 -19 32 -26 14 -7
30 -17 35 -22 49 -40 60 -48 66 -48 4 0 20 -11 36 -25 16 -14 34 -25 39 -25 6
0 18 -8 27 -17 26 -28 46 -43 58 -43 5 0 10 -4 10 -10 0 -5 6 -10 13 -10 8 0
22 -9 32 -20 10 -11 20 -18 22 -16 2 2 18 -10 35 -26 17 -16 33 -27 35 -24 3
2 13 -3 23 -12 25 -23 37 -32 90 -67 25 -16 51 -37 58 -45 12 -13 13 -13 6 0
-4 9 1 7 14 -5 32 -30 50 -45 57 -45 6 0 20 -11 50 -37 7 -7 18 -13 23 -13 5
0 17 -9 27 -20 10 -11 20 -18 23 -16 2 3 18 -8 36 -24 17 -17 34 -30 38 -30 9
0 147 -98 168 -120 8 -8 22 -16 30 -18 8 -2 16 -8 18 -13 2 -5 8 -9 13 -9 5 0
20 -10 35 -22 14 -13 27 -22 30 -20 2 1 13 -6 23 -15 29 -27 43 -36 74 -52 15
-8 27 -18 27 -23 0 -4 6 -8 13 -8 6 0 27 -14 45 -31 17 -16 32 -27 32 -24 0 4
7 0 15 -7 33 -30 45 -38 55 -38 5 0 10 -4 10 -10 0 -5 5 -10 10 -10 10 0 22
-8 55 -37 7 -7 18 -13 23 -13 4 0 19 -11 32 -25 13 -14 29 -25 37 -25 7 0 13
-4 13 -10 0 -5 7 -10 15 -10 8 0 15 -4 15 -10 0 -5 5 -10 10 -10 6 0 20 -9 32
-20 25 -23 38 -26 38 -8 0 6 3 9 6 5 4 -3 13 1 21 9 8 8 19 12 24 9 5 -4 9 2
9 11 0 10 3 15 6 11 6 -5 15 0 49 31 7 6 17 12 22 12 4 0 19 10 33 23 32 28
112 81 125 82 6 1 9 6 7 13 -1 7 4 12 12 12 8 0 27 12 43 28 16 15 35 28 43
30 8 2 17 8 18 13 2 5 8 9 13 9 6 0 19 9 31 20 12 11 28 20 35 20 8 0 11 5 8
10 -3 6 0 10 8 10 7 0 23 9 35 20 12 11 25 20 31 20 5 0 12 7 15 16 3 8 10 12
16 9 5 -3 10 -2 10 4 0 5 8 12 18 15 9 3 30 17 46 31 16 14 35 25 42 25 8 0
19 9 26 20 7 11 16 20 21 20 7 0 20 9 52 38 8 7 15 11 15 7 0 -3 10 4 23 15
12 12 41 33 65 47 23 14 42 29 42 34 0 5 7 9 15 9 8 0 15 5 15 10 0 6 7 10 15
10 9 0 18 7 21 15 4 8 10 12 15 9 5 -3 12 2 15 10 3 9 10 13 15 10 5 -3 9 -1
9 4 0 5 12 15 27 23 15 8 35 21 44 29 8 8 24 21 35 27 35 23 189 132 201 142
7 6 17 11 23 11 5 0 10 3 10 8 0 4 21 20 48 37 47 30 61 40 87 63 7 6 16 12
20 12 4 0 13 6 20 13 33 29 45 37 55 37 5 0 10 5 10 10 0 6 7 10 15 10 9 0 18
7 21 15 4 8 12 15 20 15 8 0 14 5 14 10 0 6 6 10 13 10 7 0 22 8 33 18 10 10
27 21 37 25 9 3 17 11 17 17 0 5 6 10 14 10 8 0 17 7 20 16 3 8 10 12 16 9 5
-3 10 -1 10 5 0 6 5 8 10 5 6 -3 10 -2 10 3 0 5 35 33 78 63 42 29 79 57 80
61 2 4 10 8 18 8 8 0 14 3 14 8 0 6 18 17 48 31 1 0 -5 -10 -14 -24z m-1627
-248 c3 9 10 10 24 3 14 -8 19 -7 19 1 0 8 5 7 16 -2 10 -8 12 -15 5 -17 -6
-2 -9 -8 -5 -13 3 -5 1 -9 -4 -9 -5 0 -12 -9 -15 -20 -8 -30 -8 -30 -36 -85
-14 -27 -26 -52 -26 -55 0 -3 -10 -25 -21 -50 -55 -117 -74 -161 -74 -171 0
-11 23 -67 41 -101 5 -10 9 -25 9 -33 0 -8 5 -15 10 -15 17 0 11 -39 -10 -60
-11 -11 -20 -18 -20 -15 0 5 -31 -19 -60 -46 -9 -8 -22 -13 -30 -11 -7 3 -10
0 -6 -6 3 -6 -3 -13 -14 -17 -11 -3 -20 -11 -20 -16 0 -5 -7 -9 -15 -9 -7 0
-18 -7 -23 -16 -5 -9 -13 -16 -18 -17 -5 0 -13 -5 -19 -9 -59 -49 -101 -76
-109 -71 -5 3 -6 1 -2 -5 4 -7 -2 -16 -16 -21 -13 -5 -35 -20 -50 -34 -15 -14
-29 -22 -32 -19 -3 3 -6 0 -6 -6 0 -16 -31 -3 -52 21 -10 11 -18 17 -18 13 0
-4 -15 4 -33 18 -19 15 -39 26 -46 26 -6 0 -14 7 -17 15 -4 8 -10 15 -15 15
-5 0 -18 9 -29 20 -12 12 -25 18 -30 15 -6 -4 -10 1 -10 10 0 9 -4 13 -10 10
-5 -3 -10 -1 -10 4 0 6 -7 11 -15 11 -8 0 -15 3 -15 8 0 4 -21 20 -48 37 -26
16 -66 44 -90 61 -24 18 -48 34 -55 37 -7 2 -4 18 10 48 11 24 24 54 27 67 4
12 12 22 17 22 5 0 8 3 7 8 -4 13 13 52 23 52 5 0 8 3 7 8 -3 6 24 66 73 165
10 20 16 37 12 37 -3 0 2 9 12 20 10 11 14 20 9 20 -5 0 -4 4 2 8 10 7 42 70
43 85 0 4 9 17 20 29 21 22 31 23 269 32 45 1 85 5 88 9 3 3 17 2 30 -3 13 -5
24 -6 24 -2 0 7 21 8 218 12 53 2 82 6 82 14 0 6 5 4 11 -4 8 -11 12 -12 16
-3z m-2187 -690 c0 -5 5 -5 10 -2 6 3 10 1 10 -4 0 -6 7 -11 15 -11 8 0 15 -4
15 -10 0 -5 7 -10 15 -10 8 0 15 -3 15 -7 0 -5 25 -24 55 -43 30 -19 55 -38
55 -42 0 -5 5 -8 10 -8 10 0 21 -8 54 -37 8 -7 16 -9 20 -6 3 4 6 2 6 -3 0 -5
18 -20 40 -34 22 -14 40 -28 40 -32 0 -5 7 -8 15 -8 8 0 15 -4 15 -10 0 -5 7
-10 15 -10 8 0 15 -5 15 -11 0 -5 5 -7 10 -4 6 3 10 -1 10 -9 0 -9 3 -15 8
-14 11 3 92 -53 92 -64 0 -5 4 -7 9 -4 4 3 16 -3 26 -14 10 -11 24 -20 32 -20
7 0 13 -4 13 -10 0 -5 7 -10 15 -10 7 0 18 -6 22 -13 4 -6 28 -26 53 -42 25
-17 47 -33 48 -37 2 -5 9 -8 15 -8 7 0 27 -14 45 -31 17 -16 32 -27 32 -24 0
7 74 -47 78 -57 2 -5 8 -8 13 -8 6 0 19 -9 31 -20 12 -11 28 -20 35 -20 7 0
13 -4 13 -9 0 -6 18 -20 40 -32 22 -13 40 -26 40 -30 0 -4 9 -11 20 -14 11 -4
31 -17 44 -30 13 -13 27 -21 30 -18 3 3 8 -2 12 -11 3 -9 12 -16 19 -16 10 0
25 -10 73 -50 6 -6 12 -7 12 -3 0 4 5 0 11 -9 5 -10 14 -18 20 -18 5 0 22 -11
37 -25 15 -14 32 -25 39 -25 7 0 13 -5 13 -11 0 -5 5 -7 10 -4 6 3 10 2 10 -3
0 -5 20 -22 45 -38 25 -15 45 -32 45 -37 0 -4 5 -5 10 -2 6 3 10 1 10 -4 0 -6
7 -11 15 -11 8 0 15 -4 15 -9 0 -6 18 -20 40 -32 22 -13 40 -26 40 -31 0 -4 7
-8 15 -8 8 0 15 -4 15 -10 0 -5 7 -10 15 -10 8 0 15 -4 15 -8 0 -4 15 -16 32
-27 33 -19 46 -28 73 -52 7 -7 18 -13 24 -13 6 0 11 -4 11 -10 0 -5 5 -10 11
-10 6 0 16 -6 23 -12 8 -7 24 -20 36 -28 12 -8 28 -20 35 -27 7 -7 15 -9 19
-6 3 3 8 -2 12 -11 3 -9 10 -16 15 -16 6 0 19 -9 31 -19 12 -12 27 -17 37 -13
30 12 161 105 161 114 0 5 5 6 10 3 6 -3 10 -1 10 6 0 7 3 10 6 6 4 -3 12 -1
19 6 32 31 83 65 108 73 9 4 17 10 17 14 0 5 17 19 38 31 20 13 39 27 40 31 2
4 10 8 18 8 8 0 17 7 20 15 4 8 13 15 20 15 8 0 17 6 20 14 3 8 16 17 30 20
13 4 24 11 24 16 0 6 4 10 10 10 5 0 21 10 36 23 14 12 27 21 30 20 2 -2 13 6
24 17 11 11 27 20 36 20 8 0 12 4 9 10 -3 5 6 12 20 16 14 3 25 10 25 14 0 4
23 23 51 41 28 18 58 39 67 48 15 15 15 14 8 -4 -4 -11 -9 -27 -11 -35 -2 -8
-4 -16 -4 -17 -1 -2 -2 -6 -3 -10 -1 -5 -8 -14 -15 -21 -7 -8 -11 -18 -8 -23
4 -5 1 -9 -4 -9 -6 0 -11 -9 -11 -20 0 -11 -4 -20 -8 -20 -5 0 -9 -6 -9 -12 0
-7 -19 -53 -43 -102 -23 -49 -43 -95 -44 -102 -1 -8 -8 -20 -14 -26 -7 -7 -12
-20 -12 -30 0 -12 -7 -18 -21 -18 -11 0 -17 -4 -14 -10 3 -5 -1 -10 -9 -10 -9
0 -16 -4 -16 -10 0 -5 -7 -10 -15 -10 -8 0 -15 -4 -15 -9 0 -5 -9 -13 -20 -16
-11 -3 -26 -12 -32 -19 -23 -22 -106 -76 -118 -76 -6 0 -8 -5 -4 -12 5 -8 2
-9 -9 -5 -10 3 -17 2 -17 -3 0 -5 -13 -17 -29 -26 -17 -10 -28 -21 -25 -26 3
-4 -2 -5 -10 -2 -11 4 -16 0 -16 -11 0 -9 -4 -14 -9 -10 -5 3 -16 -2 -24 -10
-9 -8 -20 -15 -26 -15 -6 0 -11 -4 -11 -10 0 -5 -7 -10 -15 -10 -7 0 -19 -8
-24 -17 -6 -10 -11 -14 -11 -10 0 7 -10 0 -45 -30 -7 -7 -16 -13 -20 -13 -6 0
-20 -11 -50 -38 -8 -7 -15 -11 -15 -7 0 4 -7 -1 -16 -9 -18 -18 -44 -21 -44
-5 0 5 -4 7 -10 4 -5 -3 -10 -1 -10 4 0 6 -5 11 -10 11 -6 0 -20 8 -31 18 -10
11 -32 25 -47 33 -15 8 -38 24 -52 37 -14 12 -33 25 -42 28 -10 3 -18 10 -18
15 0 5 -7 9 -15 9 -8 0 -15 5 -15 10 0 6 -7 10 -15 10 -8 0 -15 3 -15 8 0 4
-16 16 -35 26 -19 10 -32 23 -28 29 3 6 1 7 -5 3 -6 -3 -17 1 -25 9 -9 8 -20
15 -26 15 -5 0 -14 6 -18 14 -4 8 -15 16 -23 18 -8 2 -22 10 -30 19 -19 20
-62 44 -73 41 -5 -1 -6 2 -3 7 4 5 -3 12 -14 16 -11 3 -20 11 -20 17 0 6 -3 9
-6 5 -6 -6 -17 1 -55 36 -10 9 -26 17 -36 17 -9 0 -13 3 -10 7 7 6 -22 27 -55
39 -9 3 -19 12 -22 20 -3 8 -12 14 -21 14 -8 0 -15 5 -15 10 0 6 -7 10 -15 10
-8 0 -15 5 -15 10 0 6 -5 10 -10 10 -6 0 -20 9 -32 20 -12 11 -28 20 -35 20
-7 0 -13 4 -13 9 0 5 -25 24 -55 42 -30 18 -55 37 -55 41 0 4 -7 8 -15 8 -8 0
-15 3 -15 8 0 4 -14 13 -30 20 -18 8 -27 18 -23 25 3 7 3 9 -2 5 -4 -4 -29 8
-55 27 -26 19 -53 35 -59 35 -6 0 -14 7 -17 15 -4 8 -10 15 -15 15 -6 0 -15 5
-22 10 -45 38 -61 50 -67 50 -4 0 -20 11 -36 25 -16 14 -33 25 -37 25 -4 0
-17 9 -29 20 -12 11 -28 20 -35 20 -8 0 -11 5 -8 10 3 6 0 10 -8 10 -12 0 -26
9 -74 50 -7 5 -17 10 -23 10 -5 0 -10 5 -10 10 0 6 -7 10 -15 10 -8 0 -15 4
-15 8 0 10 -51 37 -63 33 -5 -1 -6 3 -2 9 3 5 -1 10 -10 10 -8 0 -18 7 -21 15
-3 8 -14 17 -24 20 -16 5 -31 16 -77 55 -7 5 -17 10 -23 10 -5 0 -10 5 -10 10
0 6 -5 10 -11 10 -16 0 -50 41 -43 51 3 5 0 9 -5 9 -6 0 -11 7 -11 15 0 8 -5
15 -11 15 -6 0 -9 7 -5 15 3 8 1 15 -5 15 -6 0 -7 5 -4 10 3 6 1 10 -4 10 -6
0 -11 9 -11 20 0 11 -4 20 -10 20 -5 0 -10 3 -9 8 2 15 -14 52 -23 52 -5 0 -7
4 -3 9 3 5 0 15 -7 23 -7 7 -13 18 -14 23 -3 23 -17 55 -25 55 -5 0 -9 6 -9
14 0 8 -9 31 -21 50 -12 20 -18 36 -14 36 4 0 1 8 -6 17 -11 13 -8 13 13 -2
15 -11 28 -24 28 -28z m442 -911 c-3 -5 0 -6 5 -3 6 4 23 -5 39 -18 16 -14 33
-25 38 -25 5 0 17 -9 27 -21 9 -11 21 -20 26 -20 4 0 18 -9 31 -19 12 -11 22
-17 22 -14 0 3 7 -1 15 -8 27 -24 40 -34 105 -78 36 -24 68 -48 72 -54 4 -6 8
-7 8 -3 0 4 12 -3 27 -17 15 -14 40 -30 55 -37 15 -6 28 -15 28 -20 0 -4 18
-18 40 -30 22 -13 40 -26 40 -31 0 -4 7 -8 15 -8 8 0 15 -4 15 -10 0 -5 5 -10
10 -10 10 0 22 -8 55 -37 7 -7 18 -13 24 -13 5 0 14 -6 18 -14 4 -8 15 -16 23
-18 8 -2 22 -10 30 -18 23 -23 78 -60 90 -60 5 0 10 -4 10 -10 0 -5 7 -10 15
-10 8 0 15 -4 15 -8 0 -5 29 -28 65 -51 36 -24 65 -47 65 -52 0 -5 7 -6 15 -3
8 4 15 2 15 -4 0 -6 17 -21 38 -33 37 -24 51 -34 77 -56 7 -7 18 -13 24 -13 5
0 15 -8 20 -17 6 -10 11 -14 11 -9 0 5 8 0 18 -10 9 -10 24 -20 32 -22 8 -2
16 -8 18 -13 2 -5 21 -19 43 -31 21 -12 39 -25 39 -30 0 -4 7 -8 15 -8 8 0 15
-4 15 -10 0 -5 7 -10 15 -10 8 0 15 -4 15 -10 0 -5 4 -10 9 -10 6 0 22 -11 37
-25 14 -13 30 -22 35 -19 5 3 9 1 9 -4 0 -6 15 -19 33 -31 17 -11 41 -26 52
-33 11 -7 27 -21 36 -30 9 -10 19 -15 23 -11 3 3 6 2 6 -3 0 -5 16 -18 35 -28
19 -11 35 -23 35 -28 0 -4 7 -8 15 -8 8 0 15 -3 15 -7 0 -9 61 -47 71 -45 17
3 2 -32 -20 -46 -28 -18 -44 -30 -66 -49 -7 -7 -17 -13 -21 -13 -4 0 -14 -7
-23 -15 -51 -46 -60 -53 -65 -48 -3 4 -6 0 -6 -7 0 -7 -3 -11 -6 -8 -3 4 -14
-1 -23 -10 -10 -9 -28 -24 -41 -32 -13 -8 -32 -23 -42 -32 -10 -10 -20 -17
-22 -15 -3 1 -16 -8 -30 -20 -15 -13 -29 -23 -31 -23 -6 0 -24 -14 -56 -42
-10 -10 -19 -16 -19 -13 0 5 -13 -4 -45 -32 -7 -7 -18 -13 -23 -13 -6 0 -12
-4 -14 -8 -7 -18 -65 -48 -86 -44 -12 2 -20 8 -17 13 4 5 -1 9 -9 9 -9 0 -16
5 -16 10 0 6 -7 10 -15 10 -8 0 -15 5 -15 10 0 6 -6 10 -14 10 -7 0 -21 10
-30 22 -9 13 -14 16 -11 8 4 -10 2 -9 -8 3 -8 9 -17 17 -21 17 -4 0 -13 6 -20
13 -8 6 -24 19 -36 27 -13 8 -42 29 -66 47 -23 17 -45 29 -48 26 -3 -4 -6 -1
-6 6 0 6 -12 16 -26 21 -15 6 -22 14 -18 22 4 7 3 8 -4 4 -7 -4 -12 -2 -12 4
0 6 -4 9 -8 6 -4 -2 -23 8 -41 24 -18 16 -41 32 -51 35 -10 3 -21 12 -24 20
-3 8 -10 15 -16 15 -6 0 -20 9 -32 20 -12 11 -28 20 -35 20 -20 0 -16 9 17 40
17 15 30 25 30 22 0 -3 8 3 19 14 10 10 33 30 51 44 18 14 41 33 51 42 16 15
19 15 47 -5 17 -12 40 -29 52 -37 12 -8 28 -21 36 -27 7 -7 17 -13 23 -13 6 0
11 -4 11 -10 0 -5 7 -10 15 -10 8 0 15 -3 15 -8 0 -4 18 -18 40 -32 22 -14 40
-29 40 -34 0 -5 3 -7 6 -3 6 5 15 0 49 -30 7 -7 18 -13 23 -13 6 0 12 -4 14
-8 2 -4 17 -17 33 -29 l31 -21 17 21 c9 12 17 18 17 14 0 -4 12 4 27 18 15 14
31 25 36 25 7 0 18 8 50 36 7 6 23 16 35 23 l23 12 -32 30 c-17 16 -34 29 -39
29 -6 0 -23 12 -67 50 -7 6 -13 8 -13 5 0 -5 -11 4 -57 45 -13 11 -26 20 -30
20 -5 0 -16 7 -26 15 -9 8 -20 15 -23 15 -2 0 -14 9 -26 20 -12 11 -28 20 -35
20 -8 0 -12 4 -9 8 2 4 -9 14 -25 21 -16 7 -27 17 -23 22 3 5 -4 9 -15 9 -12
0 -21 5 -21 10 0 6 -7 10 -15 10 -8 0 -15 5 -15 10 0 6 -7 10 -15 10 -8 0 -15
3 -15 8 0 4 -18 18 -40 32 -22 14 -40 28 -40 33 0 4 -4 6 -9 3 -5 -3 -11 1
-15 9 -3 8 -10 15 -16 15 -10 0 -21 8 -55 38 -7 6 -17 12 -22 12 -4 0 -20 11
-35 24 -14 14 -28 22 -32 19 -3 -3 -8 2 -12 11 -3 9 -12 16 -20 16 -7 0 -18 8
-23 18 -6 9 -11 13 -11 9 0 -8 -13 1 -50 35 -10 9 -21 14 -24 11 -3 -4 -6 -1
-6 5 0 7 -7 12 -15 12 -8 0 -15 5 -15 11 0 5 -4 8 -8 5 -5 -3 -15 4 -22 15 -8
10 -20 19 -27 19 -7 0 -13 5 -13 10 0 6 -5 10 -10 10 -6 0 -23 11 -38 25 -15
14 -32 25 -39 25 -7 0 -13 5 -13 12 0 6 -3 9 -6 5 -3 -3 -14 2 -23 11 -10 10
-28 24 -41 32 -12 8 -35 25 -50 38 -15 12 -33 22 -39 22 -6 0 -11 9 -11 20 0
11 -4 20 -10 20 -5 0 -10 7 -10 15 0 8 -9 30 -20 50 -11 20 -20 42 -20 50 0 8
-4 15 -9 15 -5 0 -11 13 -14 29 -3 16 -14 37 -24 47 -10 9 -16 18 -14 18 6 1
-22 76 -29 76 -3 0 -7 10 -7 22 -1 13 -7 24 -13 26 -5 2 -8 8 -4 13 3 5 1 9
-5 9 -5 0 -9 9 -8 19 1 18 2 18 28 -2 14 -12 24 -26 21 -31z"/>
<path d="M2359 3664 c-1 -2 -3 -8 -4 -14 -1 -5 -4 -12 -5 -15 -1 -3 -3 -10 -4
-15 0 -6 -7 -14 -14 -19 -8 -5 -13 -12 -12 -17 1 -8 -7 -36 -14 -54 -14 -30
-26 -62 -26 -66 0 -9 22 -28 62 -55 21 -14 35 -29 30 -34 -4 -5 -2 -5 4 -2 6
4 22 -2 34 -13 37 -32 62 -35 82 -10 10 12 18 18 18 14 0 -5 7 0 15 10 8 11
15 17 15 13 0 -5 6 -3 13 3 49 42 73 60 78 60 11 0 20 33 12 39 -4 3 -28 45
-53 94 l-44 88 -93 -2 c-51 -1 -94 -3 -94 -5z"/>
</g>
</svg>
